<?xml version="1.0" encoding="UTF-8" standalone="no"?>
<!DOCTYPE svg PUBLIC "-//W3C//DTD SVG 1.1//EN"
 "http://www.w3.org/Graphics/SVG/1.1/DTD/svg11.dtd">
<!-- Generated by graphviz version 14.1.5 (20260411.2331)
 -->
<!-- Title: CapabilityNegotiation Pages: 1 -->
<svg width="671pt" height="217pt"
 viewBox="0.00 0.00 671.00 217.00" xmlns="http://www.w3.org/2000/svg" xmlns:xlink="http://www.w3.org/1999/xlink">
<g id="graph0" class="graph" transform="scale(1 1) rotate(0) translate(25.2 199.26)">
<title>CapabilityNegotiation</title>
<g id="clust1" class="cluster">
<title>cluster_runtime</title>
<path fill="#f1f5f9" stroke="#e2e8f0" d="M20,-77.27C20,-77.27 400.61,-77.27 400.61,-77.27 406.61,-77.27 412.61,-83.27 412.61,-89.27 412.61,-89.27 412.61,-161.26 412.61,-161.26 412.61,-167.26 406.61,-173.26 400.61,-173.26 400.61,-173.26 20,-173.26 20,-173.26 14,-173.26 8,-167.26 8,-161.26 8,-161.26 8,-89.27 8,-89.27 8,-83.27 14,-77.27 20,-77.27"/>
<text xml:space="preserve" text-anchor="start" x="24" y="-150.86" font-family="Helvetica,sans-Serif" font-weight="bold" font-size="12.00" fill="#475569">ArcpRuntime</text>
</g>
<!-- Client -->
<g id="node1" class="node">
<title>Client</title>
<path fill="#3b82f6" stroke="#2563eb" stroke-width="1.4" d="M608.54,-78.27C608.54,-78.27 540.11,-78.27 540.11,-78.27 534.11,-78.27 528.11,-72.27 528.11,-66.27 528.11,-66.27 528.11,-54.27 528.11,-54.27 528.11,-48.27 534.11,-42.27 540.11,-42.27 540.11,-42.27 608.54,-42.27 608.54,-42.27 614.54,-42.27 620.54,-48.27 620.54,-54.27 620.54,-54.27 620.54,-66.27 620.54,-66.27 620.54,-72.27 614.54,-78.27 608.54,-78.27"/>
<text xml:space="preserve" text-anchor="start" x="543.95" y="-56.24" font-family="Helvetica,sans-Serif" font-weight="bold" font-size="12.00" fill="white">ArcpClient</text>
</g>
<!-- Verifier -->
<g id="node2" class="node">
<title>Verifier</title>
<path fill="white" stroke="#cbd5e1" d="M108.43,-127.27C108.43,-127.27 34,-127.27 34,-127.27 28,-127.27 22,-121.27 22,-115.27 22,-115.27 22,-103.27 22,-103.27 22,-97.27 28,-91.27 34,-91.27 34,-91.27 108.43,-91.27 108.43,-91.27 114.43,-91.27 120.43,-97.27 120.43,-103.27 120.43,-103.27 120.43,-115.27 120.43,-115.27 120.43,-121.27 114.43,-127.27 108.43,-127.27"/>
<text xml:space="preserve" text-anchor="middle" x="71.22" y="-104.81" font-family="Helvetica,sans-Serif" font-size="11.00" fill="#1f2937">BearerVerifier</text>
</g>
<!-- Client&#45;&gt;Verifier -->
<g id="edge1" class="edge">
<title>Client&#45;&gt;Verifier</title>
<path fill="none" stroke="#64748b" stroke-width="1.2" d="M527.66,-53.6C464.35,-45.58 346.51,-35.04 247.68,-51.02 204.41,-58.01 157.38,-74.12 122.91,-87.62"/>
<polygon fill="#64748b" stroke="#64748b" stroke-width="1.2" points="116.23,-90.28 121.95,-84.37 118.32,-89.34 123.16,-87.41 123.2,-87.51 123.23,-87.6 118.39,-89.52 124.44,-90.64 116.23,-90.28"/>
<text xml:space="preserve" text-anchor="middle" x="323.15" y="-71.72" font-family="Helvetica,sans-Serif" font-size="9.00" fill="#64748b">session.hello</text>
<text xml:space="preserve" text-anchor="middle" x="323.15" y="-61.97" font-family="Helvetica,sans-Serif" font-size="9.00" fill="#64748b">auth + features[]</text>
<text xml:space="preserve" text-anchor="middle" x="323.15" y="-52.22" font-family="Helvetica,sans-Serif" font-size="9.00" fill="#64748b">§6.1 / §6.2</text>
</g>
<!-- Negotiator -->
<g id="node3" class="node">
<title>Negotiator</title>
<path fill="#f59e0b" stroke="#d97706" stroke-width="1.4" d="M386.61,-130.26C386.61,-130.26 259.68,-130.26 259.68,-130.26 253.68,-130.26 247.68,-124.26 247.68,-118.26 247.68,-118.26 247.68,-106.26 247.68,-106.26 247.68,-100.27 253.68,-94.27 259.68,-94.27 259.68,-94.27 386.61,-94.27 386.61,-94.27 392.61,-94.27 398.61,-100.27 398.61,-106.27 398.61,-106.27 398.61,-118.27 398.61,-118.27 398.61,-124.26 392.61,-130.26 386.61,-130.26"/>
<text xml:space="preserve" text-anchor="start" x="263.52" y="-108.24" font-family="Helvetica,sans-Serif" font-weight="bold" font-size="12.00" fill="white">Capabilities.intersect</text>
</g>
<!-- Verifier&#45;&gt;Negotiator -->
<g id="edge2" class="edge">
<title>Verifier&#45;&gt;Negotiator</title>
<path fill="none" stroke="#64748b" stroke-width="1.2" d="M120.7,-109.85C154.09,-110.25 199.32,-110.79 238.45,-111.26"/>
<polygon fill="#64748b" stroke="#64748b" stroke-width="1.2" points="245.76,-111.35 238.22,-114.63 243.47,-111.42 238.26,-111.36 238.26,-111.26 238.26,-111.16 243.47,-111.22 238.3,-107.88 245.76,-111.35"/>
<text xml:space="preserve" text-anchor="middle" x="184.81" y="-112.23" font-family="Helvetica,sans-Serif" font-size="9.00" fill="#64748b">Principal accepted</text>
</g>
<!-- Negotiator&#45;&gt;Client -->
<g id="edge3" class="edge">
<title>Negotiator&#45;&gt;Client</title>
<path fill="none" stroke="#64748b" stroke-width="1.2" d="M399.25,-96.59C437.82,-88.54 483.95,-78.92 519.03,-71.6"/>
<polygon fill="#64748b" stroke="#64748b" stroke-width="1.2" points="526.27,-70.08 519.62,-74.92 524.05,-70.65 518.95,-71.71 518.93,-71.62 518.91,-71.52 524.01,-70.45 518.24,-68.31 526.27,-70.08"/>
<text xml:space="preserve" text-anchor="middle" x="463.36" y="-111.62" font-family="Helvetica,sans-Serif" font-size="9.00" fill="#64748b">session.welcome</text>
<text xml:space="preserve" text-anchor="middle" x="463.36" y="-101.87" font-family="Helvetica,sans-Serif" font-size="9.00" fill="#64748b">features[] + agents[]</text>
<text xml:space="preserve" text-anchor="middle" x="463.36" y="-92.12" font-family="Helvetica,sans-Serif" font-size="9.00" fill="#64748b">§6.2</text>
</g>
<!-- Outcome -->
<g id="node4" class="node">
<title>Outcome</title>
<path fill="#fafbfc" stroke="#cbd5e1" d="M121.93,-42.3C121.93,-44.63 99.2,-46.53 71.22,-46.53 43.23,-46.53 20.5,-44.63 20.5,-42.3 20.5,-42.3 20.5,-4.23 20.5,-4.23 20.5,-1.9 43.23,0 71.22,0 99.2,0 121.93,-1.9 121.93,-4.23 121.93,-4.23 121.93,-42.3 121.93,-42.3"/>
<path fill="none" stroke="#cbd5e1" d="M121.93,-42.3C121.93,-39.97 99.2,-38.07 71.22,-38.07 43.23,-38.07 20.5,-39.97 20.5,-42.3"/>
<text xml:space="preserve" text-anchor="start" x="53.59" y="-23.77" font-family="Helvetica,sans-Serif" font-size="10.00" fill="#1f2937">Session</text>
<text xml:space="preserve" text-anchor="start" x="36.34" y="-15.67" font-family="Helvetica,sans-Serif" font-size="8.00" fill="#94a3b8">negotiatedFeatures</text>
</g>
<!-- Negotiator&#45;&gt;Outcome -->
<g id="edge4" class="edge">
<title>Negotiator&#45;&gt;Outcome</title>
<path fill="none" stroke="#f472b6" stroke-width="1.1" stroke-dasharray="5,2" d="M269.67,-93.58C228.95,-79.08 172.52,-58.98 130.41,-43.99"/>
<polygon fill="#f472b6" stroke="#f472b6" stroke-width="1.1" points="123.45,-41.51 131.65,-40.85 125.74,-42.27 130.54,-43.98 130.52,-44.03 130.5,-44.07 125.71,-42.37 129.39,-47.21 123.45,-41.51"/>
<text xml:space="preserve" text-anchor="start" x="157.06" y="-77.99" font-family="Helvetica,sans-Serif" font-size="9.00" fill="#db2777">Set&lt;Feature&gt;</text>
</g>
</g>
</svg>
