<?xml version="1.0" encoding="UTF-8" standalone="no"?>
<!DOCTYPE svg PUBLIC "-//W3C//DTD SVG 1.1//EN"
 "http://www.w3.org/Graphics/SVG/1.1/DTD/svg11.dtd">
<!-- Generated by graphviz version 14.1.5 (20260411.2331)
 -->
<!-- Title: CapabilityNegotiation Pages: 1 -->
<svg width="650pt" height="223pt"
 viewBox="0.00 0.00 650.00 223.00" xmlns="http://www.w3.org/2000/svg" xmlns:xlink="http://www.w3.org/1999/xlink">
<g id="graph0" class="graph" transform="scale(1 1) rotate(0) translate(25.2 205.26)">
<title>CapabilityNegotiation</title>
<g id="clust1" class="cluster">
<title>cluster_runtime</title>
<path fill="#f1f5f9" stroke="#e2e8f0" d="M20,-80.27C20,-80.27 384.86,-80.27 384.86,-80.27 390.86,-80.27 396.86,-86.27 396.86,-92.27 396.86,-92.27 396.86,-167.26 396.86,-167.26 396.86,-173.26 390.86,-179.26 384.86,-179.26 384.86,-179.26 20,-179.26 20,-179.26 14,-179.26 8,-173.26 8,-167.26 8,-167.26 8,-92.27 8,-92.27 8,-86.27 14,-80.27 20,-80.27"/>
<text xml:space="preserve" text-anchor="start" x="24" y="-156.86" font-family="TT Commons Pro Trial" font-weight="bold" font-size="12.00" fill="#475569">ArcpRuntime</text>
</g>
<!-- Client -->
<g id="node1" class="node">
<title>Client</title>
<path fill="#3b82f6" stroke="#2563eb" stroke-width="1.4" d="M587.54,-77.27C587.54,-77.27 523.61,-77.27 523.61,-77.27 517.61,-77.27 511.61,-71.27 511.61,-65.27 511.61,-65.27 511.61,-53.27 511.61,-53.27 511.61,-47.27 517.61,-41.27 523.61,-41.27 523.61,-41.27 587.54,-41.27 587.54,-41.27 593.54,-41.27 599.54,-47.27 599.54,-53.27 599.54,-53.27 599.54,-65.27 599.54,-65.27 599.54,-71.27 593.54,-77.27 587.54,-77.27"/>
<text xml:space="preserve" text-anchor="start" x="527.45" y="-56.37" font-family="TT Commons Pro Trial" font-weight="bold" font-size="12.00" fill="white">ArcpClient</text>
</g>
<!-- Verifier -->
<g id="node2" class="node">
<title>Verifier</title>
<path fill="white" stroke="#cbd5e1" d="M105.43,-130.26C105.43,-130.26 34,-130.26 34,-130.26 28,-130.26 22,-124.26 22,-118.26 22,-118.26 22,-106.26 22,-106.26 22,-100.27 28,-94.27 34,-94.27 34,-94.27 105.43,-94.27 105.43,-94.27 111.43,-94.27 117.43,-100.27 117.43,-106.27 117.43,-106.27 117.43,-118.27 117.43,-118.27 117.43,-124.26 111.43,-130.26 105.43,-130.26"/>
<text xml:space="preserve" text-anchor="middle" x="69.72" y="-108.94" font-family="TT Commons Pro Trial" font-size="11.00" fill="#1f2937">BearerVerifier</text>
</g>
<!-- Client&#45;&gt;Verifier -->
<g id="edge1" class="edge">
<title>Client&#45;&gt;Verifier</title>
<path fill="none" stroke="#64748b" stroke-width="1.2" d="M511.16,-52.61C450.37,-44.52 336.69,-33.88 241.68,-50.52 198.22,-58.12 151.25,-75.83 117.55,-90.35"/>
<polygon fill="#64748b" stroke="#64748b" stroke-width="1.2" points="111.06,-93.18 116.58,-87.09 113.11,-92.18 117.89,-90.09 117.93,-90.18 117.97,-90.28 113.19,-92.36 119.28,-93.28 111.06,-93.18"/>
<text xml:space="preserve" text-anchor="middle" x="312.27" y="-75.72" font-family="TT Commons Pro Trial" font-size="9.00" fill="#64748b">session.hello</text>
<text xml:space="preserve" text-anchor="middle" x="312.27" y="-64.47" font-family="TT Commons Pro Trial" font-size="9.00" fill="#64748b">auth + features[]</text>
<text xml:space="preserve" text-anchor="middle" x="312.27" y="-53.22" font-family="TT Commons Pro Trial" font-size="9.00" fill="#64748b">§6.1 / §6.2</text>
</g>
<!-- Negotiator -->
<g id="node3" class="node">
<title>Negotiator</title>
<path fill="#f59e0b" stroke="#d97706" stroke-width="1.4" d="M370.86,-134.26C370.86,-134.26 253.68,-134.26 253.68,-134.26 247.68,-134.26 241.68,-128.26 241.68,-122.26 241.68,-122.26 241.68,-110.26 241.68,-110.26 241.68,-104.27 247.68,-98.27 253.68,-98.27 253.68,-98.27 370.86,-98.27 370.86,-98.27 376.86,-98.27 382.86,-104.27 382.86,-110.27 382.86,-110.27 382.86,-122.27 382.86,-122.27 382.86,-128.26 376.86,-134.26 370.86,-134.26"/>
<text xml:space="preserve" text-anchor="start" x="257.52" y="-113.36" font-family="TT Commons Pro Trial" font-weight="bold" font-size="12.00" fill="white">Capabilities.intersect</text>
</g>
<!-- Verifier&#45;&gt;Negotiator -->
<g id="edge2" class="edge">
<title>Verifier&#45;&gt;Negotiator</title>
<path fill="none" stroke="#64748b" stroke-width="1.2" d="M117.67,-113.05C150.34,-113.59 194.68,-114.33 232.68,-114.96"/>
<polygon fill="#64748b" stroke="#64748b" stroke-width="1.2" points="239.72,-115.08 232.17,-118.33 237.43,-115.14 232.22,-115.05 232.22,-114.95 232.23,-114.85 237.44,-114.94 232.28,-111.58 239.72,-115.08"/>
<text xml:space="preserve" text-anchor="middle" x="180.31" y="-117.32" font-family="TT Commons Pro Trial" font-size="9.00" fill="#64748b">Principal accepted</text>
</g>
<!-- Negotiator&#45;&gt;Client -->
<g id="edge3" class="edge">
<title>Negotiator&#45;&gt;Client</title>
<path fill="none" stroke="#64748b" stroke-width="1.2" d="M383.39,-99.7C421.49,-90.7 467.79,-79.76 502.63,-71.53"/>
<polygon fill="#64748b" stroke="#64748b" stroke-width="1.2" points="509.81,-69.84 503.29,-74.85 507.6,-70.46 502.53,-71.66 502.51,-71.56 502.49,-71.47 507.56,-70.27 501.73,-68.28 509.81,-69.84"/>
<text xml:space="preserve" text-anchor="middle" x="447.24" y="-118.07" font-family="TT Commons Pro Trial" font-size="9.00" fill="#64748b">session.welcome</text>
<text xml:space="preserve" text-anchor="middle" x="447.24" y="-106.82" font-family="TT Commons Pro Trial" font-size="9.00" fill="#64748b">features[] + agents[]</text>
<text xml:space="preserve" text-anchor="middle" x="447.24" y="-95.57" font-family="TT Commons Pro Trial" font-size="9.00" fill="#64748b">§6.2</text>
</g>
<!-- Outcome -->
<g id="node4" class="node">
<title>Outcome</title>
<path fill="#fafbfc" stroke="#cbd5e1" d="M118.93,-42.3C118.93,-44.63 96.87,-46.53 69.72,-46.53 42.56,-46.53 20.5,-44.63 20.5,-42.3 20.5,-42.3 20.5,-4.23 20.5,-4.23 20.5,-1.9 42.56,0 69.72,0 96.87,0 118.93,-1.9 118.93,-4.23 118.93,-4.23 118.93,-42.3 118.93,-42.3"/>
<path fill="none" stroke="#cbd5e1" d="M118.93,-42.3C118.93,-39.97 96.87,-38.07 69.72,-38.07 42.56,-38.07 20.5,-39.97 20.5,-42.3"/>
<text xml:space="preserve" text-anchor="start" x="53.59" y="-23.77" font-family="TT Commons Pro Trial" font-size="10.00" fill="#1f2937">Session</text>
<text xml:space="preserve" text-anchor="start" x="36.34" y="-15.67" font-family="TT Commons Pro Trial" font-size="8.00" fill="#94a3b8">negotiatedFeatures</text>
</g>
<!-- Negotiator&#45;&gt;Outcome -->
<g id="edge4" class="edge">
<title>Negotiator&#45;&gt;Outcome</title>
<path fill="none" stroke="#f472b6" stroke-width="1.1" stroke-dasharray="5,2" d="M263.07,-97.63C223.95,-82.51 168.71,-61.15 127.45,-45.2"/>
<polygon fill="#f472b6" stroke="#f472b6" stroke-width="1.1" points="120.64,-42.57 128.86,-42.12 122.91,-43.39 127.66,-45.23 127.64,-45.27 127.62,-45.32 122.87,-43.48 126.42,-48.42 120.64,-42.57"/>
<text xml:space="preserve" text-anchor="start" x="154.06" y="-80.34" font-family="TT Commons Pro Trial" font-size="9.00" fill="#db2777">Set&lt;Feature&gt;</text>
</g>
</g>
</svg>
