<?xml version="1.0" encoding="UTF-8" standalone="no"?>
<!DOCTYPE svg PUBLIC "-//W3C//DTD SVG 1.1//EN"
 "http://www.w3.org/Graphics/SVG/1.1/DTD/svg11.dtd">
<!-- Generated by graphviz version 14.1.5 (20260411.2331)
 -->
<!-- Title: JobLifecycle Pages: 1 -->
<svg width="700pt" height="402pt"
 viewBox="0.00 0.00 700.00 402.00" xmlns="http://www.w3.org/2000/svg" xmlns:xlink="http://www.w3.org/1999/xlink">
<g id="graph0" class="graph" transform="scale(1 1) rotate(0) translate(25.2 383.5)">
<title>JobLifecycle</title>
<g id="clust1" class="cluster">
<title>cluster_states</title>
<path fill="#f1f5f9" stroke="#e2e8f0" d="M20,-8C20,-8 630,-8 630,-8 636,-8 642,-14 642,-20 642,-20 642,-270 642,-270 642,-276 636,-282 630,-282 630,-282 20,-282 20,-282 14,-282 8,-276 8,-270 8,-270 8,-20 8,-20 8,-14 14,-8 20,-8"/>
<text xml:space="preserve" text-anchor="start" x="24" y="-259.6" font-family="Helvetica,sans-Serif" font-weight="bold" font-size="12.00" fill="#475569">JobRecord.Status</text>
</g>
<!-- Submit -->
<g id="node1" class="node">
<title>Submit</title>
<path fill="#3b82f6" stroke="#2563eb" stroke-width="1.4" d="M305.84,-365.5C305.84,-365.5 238.16,-365.5 238.16,-365.5 232.16,-365.5 226.16,-359.5 226.16,-353.5 226.16,-353.5 226.16,-341.5 226.16,-341.5 226.16,-335.5 232.16,-329.5 238.16,-329.5 238.16,-329.5 305.84,-329.5 305.84,-329.5 311.84,-329.5 317.84,-335.5 317.84,-341.5 317.84,-341.5 317.84,-353.5 317.84,-353.5 317.84,-359.5 311.84,-365.5 305.84,-365.5"/>
<text xml:space="preserve" text-anchor="start" x="242" y="-343.48" font-family="Helvetica,sans-Serif" font-weight="bold" font-size="12.00" fill="white">job.submit</text>
</g>
<!-- Pending -->
<g id="node2" class="node">
<title>Pending</title>
<path fill="white" stroke="#cbd5e1" d="M301.34,-239.25C301.34,-239.25 242.66,-239.25 242.66,-239.25 236.66,-239.25 230.66,-233.25 230.66,-227.25 230.66,-227.25 230.66,-215.25 230.66,-215.25 230.66,-209.25 236.66,-203.25 242.66,-203.25 242.66,-203.25 301.34,-203.25 301.34,-203.25 307.34,-203.25 313.34,-209.25 313.34,-215.25 313.34,-215.25 313.34,-227.25 313.34,-227.25 313.34,-233.25 307.34,-239.25 301.34,-239.25"/>
<text xml:space="preserve" text-anchor="middle" x="272" y="-216.8" font-family="Helvetica,sans-Serif" font-size="11.00" fill="#1f2937">PENDING</text>
</g>
<!-- Submit&#45;&gt;Pending -->
<g id="edge1" class="edge">
<title>Submit&#45;&gt;Pending</title>
<path fill="none" stroke="#64748b" stroke-width="1.2" d="M272,-328.96C272,-307.96 272,-272.6 272,-248.38"/>
<polygon fill="#64748b" stroke="#64748b" stroke-width="1.2" points="272,-241.16 275.38,-248.66 272.1,-243.45 272.1,-248.66 272,-248.66 271.9,-248.66 271.9,-243.45 268.63,-248.66 272,-241.16"/>
<text xml:space="preserve" text-anchor="middle" x="298.25" y="-300.95" font-family="Helvetica,sans-Serif" font-size="9.00" fill="#64748b">job.accepted</text>
<text xml:space="preserve" text-anchor="middle" x="298.25" y="-291.2" font-family="Helvetica,sans-Serif" font-size="9.00" fill="#64748b">§7.1</text>
</g>
<!-- Running -->
<g id="node3" class="node">
<title>Running</title>
<path fill="#f59e0b" stroke="#d97706" stroke-width="1.4" d="M304.34,-153.5C304.34,-153.5 239.66,-153.5 239.66,-153.5 233.66,-153.5 227.66,-147.5 227.66,-141.5 227.66,-141.5 227.66,-129.5 227.66,-129.5 227.66,-123.5 233.66,-117.5 239.66,-117.5 239.66,-117.5 304.34,-117.5 304.34,-117.5 310.34,-117.5 316.34,-123.5 316.34,-129.5 316.34,-129.5 316.34,-141.5 316.34,-141.5 316.34,-147.5 310.34,-153.5 304.34,-153.5"/>
<text xml:space="preserve" text-anchor="start" x="243.5" y="-131.47" font-family="Helvetica,sans-Serif" font-weight="bold" font-size="12.00" fill="white">RUNNING</text>
</g>
<!-- Pending&#45;&gt;Running -->
<g id="edge2" class="edge">
<title>Pending&#45;&gt;Running</title>
<path fill="none" stroke="#64748b" stroke-width="1.2" d="M272,-202.9C272,-191.3 272,-175.82 272,-162.73"/>
<polygon fill="#64748b" stroke="#64748b" stroke-width="1.2" points="272,-155.58 275.38,-163.08 272.1,-157.87 272.1,-163.08 272,-163.08 271.9,-163.08 271.9,-157.87 268.63,-163.08 272,-155.58"/>
<text xml:space="preserve" text-anchor="middle" x="314.38" y="-174.7" font-family="Helvetica,sans-Serif" font-size="9.00" fill="#64748b">worker pool dispatch</text>
</g>
<!-- Success -->
<g id="node4" class="node">
<title>Success</title>
<path fill="white" stroke="#cbd5e1" d="M96.22,-58C96.22,-58 33.79,-58 33.79,-58 27.79,-58 21.78,-52 21.78,-46 21.78,-46 21.78,-34 21.78,-34 21.78,-28 27.78,-22 33.78,-22 33.78,-22 96.22,-22 96.22,-22 102.22,-22 108.22,-28 108.22,-34 108.22,-34 108.22,-46 108.22,-46 108.22,-52 102.22,-58 96.22,-58"/>
<text xml:space="preserve" text-anchor="middle" x="65" y="-35.55" font-family="Helvetica,sans-Serif" font-size="11.00" fill="#1f2937">SUCCESS</text>
</g>
<!-- Running&#45;&gt;Success -->
<g id="edge3" class="edge">
<title>Running&#45;&gt;Success</title>
<path fill="none" stroke="#64748b" stroke-width="1.2" d="M227.43,-133.15C172.04,-130.43 82.26,-122.22 61.5,-97.5 54.49,-89.15 54.21,-77.43 56.15,-66.82"/>
<polygon fill="#64748b" stroke="#64748b" stroke-width="1.2" points="57.86,-59.7 59.39,-67.78 57.42,-61.95 56.21,-67.01 56.11,-66.99 56.01,-66.97 57.23,-61.9 52.83,-66.2 57.86,-59.7"/>
<text xml:space="preserve" text-anchor="middle" x="80.25" y="-88.95" font-family="Helvetica,sans-Serif" font-size="9.00" fill="#64748b">job.result</text>
<text xml:space="preserve" text-anchor="middle" x="80.25" y="-79.2" font-family="Helvetica,sans-Serif" font-size="9.00" fill="#64748b">§7.3</text>
</g>
<!-- Error -->
<g id="node5" class="node">
<title>Error</title>
<path fill="white" stroke="#cbd5e1" d="M234.09,-58C234.09,-58 185.91,-58 185.91,-58 179.91,-58 173.91,-52 173.91,-46 173.91,-46 173.91,-34 173.91,-34 173.91,-28 179.91,-22 185.91,-22 185.91,-22 234.09,-22 234.09,-22 240.09,-22 246.09,-28 246.09,-34 246.09,-34 246.09,-46 246.09,-46 246.09,-52 240.09,-58 234.09,-58"/>
<text xml:space="preserve" text-anchor="middle" x="210" y="-35.55" font-family="Helvetica,sans-Serif" font-size="11.00" fill="#1f2937">ERROR</text>
</g>
<!-- Running&#45;&gt;Error -->
<g id="edge4" class="edge">
<title>Running&#45;&gt;Error</title>
<path fill="none" stroke="#c0392b" stroke-width="1.1" stroke-dasharray="5,2" d="M227.27,-130.55C184.15,-125.7 123.35,-115.78 108.75,-97.5 89.44,-73.33 129.8,-57.82 165.15,-49.28"/>
<polygon fill="#c0392b" stroke="#c0392b" stroke-width="1.1" points="172.22,-47.66 165.66,-52.62 169.88,-48.25 164.92,-49.38 164.91,-49.33 164.9,-49.29 169.86,-48.15 164.15,-46.05 172.22,-47.66"/>
<text xml:space="preserve" text-anchor="middle" x="145.88" y="-88.95" font-family="Helvetica,sans-Serif" font-size="9.00" fill="#c0392b">LEASE_EXPIRED</text>
<text xml:space="preserve" text-anchor="middle" x="145.88" y="-79.2" font-family="Helvetica,sans-Serif" font-size="9.00" fill="#c0392b">§9.5</text>
</g>
<!-- Running&#45;&gt;Error -->
<g id="edge5" class="edge">
<title>Running&#45;&gt;Error</title>
<path fill="none" stroke="#c0392b" stroke-width="1.1" stroke-dasharray="5,2" d="M228.69,-116.83C221.11,-111.74 214.23,-105.37 209.75,-97.5 204.57,-88.4 203.76,-77.07 204.56,-66.94"/>
<polygon fill="#c0392b" stroke="#c0392b" stroke-width="1.1" points="205.46,-59.78 207.88,-67.64 205.21,-62.17 204.58,-67.23 204.53,-67.22 204.48,-67.21 205.11,-62.16 201.18,-66.8 205.46,-59.78"/>
<text xml:space="preserve" text-anchor="middle" x="258.88" y="-88.95" font-family="Helvetica,sans-Serif" font-size="9.00" fill="#c0392b">BUDGET_EXHAUSTED</text>
<text xml:space="preserve" text-anchor="middle" x="258.88" y="-79.2" font-family="Helvetica,sans-Serif" font-size="9.00" fill="#c0392b">§9.6</text>
</g>
<!-- Running&#45;&gt;Error -->
<g id="edge6" class="edge">
<title>Running&#45;&gt;Error</title>
<path fill="none" stroke="#c0392b" stroke-width="1.1" stroke-dasharray="5,2" d="M295.3,-117.03C307.4,-105.78 317.96,-90.91 309,-78 296.74,-60.32 274.94,-51.08 254.91,-46.25"/>
<polygon fill="#c0392b" stroke="#c0392b" stroke-width="1.1" points="247.78,-44.72 255.82,-42.99 250.15,-45.17 255.13,-46.24 255.12,-46.29 255.11,-46.34 250.13,-45.27 254.41,-49.59 247.78,-44.72"/>
<text xml:space="preserve" text-anchor="middle" x="353.97" y="-88.95" font-family="Helvetica,sans-Serif" font-size="9.00" fill="#c0392b">INTERNAL_ERROR</text>
<text xml:space="preserve" text-anchor="middle" x="353.97" y="-79.2" font-family="Helvetica,sans-Serif" font-size="9.00" fill="#c0392b">§12</text>
</g>
<!-- Cancelled -->
<g id="node6" class="node">
<title>Cancelled</title>
<path fill="white" stroke="#cbd5e1" d="M477.59,-58C477.59,-58 402.41,-58 402.41,-58 396.41,-58 390.41,-52 390.41,-46 390.41,-46 390.41,-34 390.41,-34 390.41,-28 396.41,-22 402.41,-22 402.41,-22 477.59,-22 477.59,-22 483.59,-22 489.59,-28 489.59,-34 489.59,-34 489.59,-46 489.59,-46 489.59,-52 483.59,-58 477.59,-58"/>
<text xml:space="preserve" text-anchor="middle" x="440" y="-35.55" font-family="Helvetica,sans-Serif" font-size="11.00" fill="#1f2937">CANCELLED</text>
</g>
<!-- Running&#45;&gt;Cancelled -->
<g id="edge7" class="edge">
<title>Running&#45;&gt;Cancelled</title>
<path fill="none" stroke="#c0392b" stroke-width="1.1" stroke-dasharray="5,2" d="M316.81,-129.33C343.27,-124.51 376.31,-115.24 401,-97.5 412.25,-89.42 421.32,-77.04 427.87,-65.92"/>
<polygon fill="#c0392b" stroke="#c0392b" stroke-width="1.1" points="431.35,-59.67 430.65,-67.86 430.22,-61.8 427.75,-66.24 427.71,-66.22 427.66,-66.2 430.14,-61.75 424.76,-64.58 431.35,-59.67"/>
<text xml:space="preserve" text-anchor="middle" x="460.5" y="-88.95" font-family="Helvetica,sans-Serif" font-size="9.00" fill="#c0392b">job.cancel / interrupt</text>
<text xml:space="preserve" text-anchor="middle" x="460.5" y="-79.2" font-family="Helvetica,sans-Serif" font-size="9.00" fill="#c0392b">§7.4</text>
</g>
<!-- TimedOut -->
<g id="node7" class="node">
<title>TimedOut</title>
<path fill="white" stroke="#cbd5e1" d="M594.72,-58C594.72,-58 523.28,-58 523.28,-58 517.28,-58 511.28,-52 511.28,-46 511.28,-46 511.28,-34 511.28,-34 511.28,-28 517.28,-22 523.28,-22 523.28,-22 594.72,-22 594.72,-22 600.72,-22 606.72,-28 606.72,-34 606.72,-34 606.72,-46 606.72,-46 606.72,-52 600.72,-58 594.72,-58"/>
<text xml:space="preserve" text-anchor="middle" x="559" y="-35.55" font-family="Helvetica,sans-Serif" font-size="11.00" fill="#1f2937">TIMED_OUT</text>
</g>
<!-- Running&#45;&gt;TimedOut -->
<g id="edge8" class="edge">
<title>Running&#45;&gt;TimedOut</title>
<path fill="none" stroke="#c0392b" stroke-width="1.1" stroke-dasharray="5,2" d="M316.62,-130.99C375.34,-125.77 474.87,-114.7 507,-97.5 521.21,-89.89 533.6,-76.87 542.71,-65.24"/>
<polygon fill="#c0392b" stroke="#c0392b" stroke-width="1.1" points="547.15,-59.32 545.36,-67.34 545.75,-61.27 542.69,-65.35 542.65,-65.32 542.61,-65.29 545.67,-61.21 539.95,-63.3 547.15,-59.32"/>
<text xml:space="preserve" text-anchor="middle" x="567.88" y="-88.95" font-family="Helvetica,sans-Serif" font-size="9.00" fill="#c0392b">max_runtime_sec</text>
<text xml:space="preserve" text-anchor="middle" x="567.88" y="-79.2" font-family="Helvetica,sans-Serif" font-size="9.00" fill="#c0392b">§7.3</text>
</g>
</g>
</svg>
