<?xml version="1.0" encoding="UTF-8" standalone="no"?>
<!DOCTYPE svg PUBLIC "-//W3C//DTD SVG 1.1//EN"
 "http://www.w3.org/Graphics/SVG/1.1/DTD/svg11.dtd">
<!-- Generated by graphviz version 14.1.5 (20260411.2331)
 -->
<!-- Title: ModuleGraph Pages: 1 -->
<svg width="756pt" height="310pt"
 viewBox="0.00 0.00 756.00 310.00" xmlns="http://www.w3.org/2000/svg" xmlns:xlink="http://www.w3.org/1999/xlink">
<g id="graph0" class="graph" transform="scale(1 1) rotate(0) translate(25.2 292)">
<title>ModuleGraph</title>
<g id="clust1" class="cluster">
<title>cluster_published</title>
<path fill="#0f172a" stroke="#334155" d="M214.43,-8C214.43,-8 685.97,-8 685.97,-8 691.97,-8 697.97,-14 697.97,-20 697.97,-20 697.97,-254 697.97,-254 697.97,-260 691.97,-266 685.97,-266 685.97,-266 214.43,-266 214.43,-266 208.43,-266 202.43,-260 202.43,-254 202.43,-254 202.43,-20 202.43,-20 202.43,-14 208.43,-8 214.43,-8"/>
<text xml:space="preserve" text-anchor="start" x="218.43" y="-243.6" font-family="TT Commons Pro Trial" font-weight="bold" font-size="12.00" fill="#94a3b8">Published artifacts</text>
</g>
<g id="clust2" class="cluster">
<title>cluster_core</title>
<path fill="#1e293b" stroke="#334155" d="M443.36,-22C443.36,-22 671.97,-22 671.97,-22 677.97,-22 683.97,-28 683.97,-34 683.97,-34 683.97,-161 683.97,-161 683.97,-167 677.97,-173 671.97,-173 671.97,-173 443.36,-173 443.36,-173 437.36,-173 431.36,-167 431.36,-161 431.36,-161 431.36,-34 431.36,-34 431.36,-28 437.36,-22 443.36,-22"/>
<text xml:space="preserve" text-anchor="start" x="447.36" y="-150.6" font-family="TT Commons Pro Trial" font-weight="bold" font-size="12.00" fill="#94a3b8">Core trio</text>
</g>
<!-- Consumer -->
<g id="node1" class="node">
<title>Consumer</title>
<path fill="#3b82f6" stroke="#2563eb" stroke-width="1.4" d="M96.18,-73C96.18,-73 12,-73 12,-73 6,-73 0,-67 0,-61 0,-61 0,-49 0,-49 0,-43 6,-37 12,-37 12,-37 96.18,-37 96.18,-37 102.18,-37 108.18,-43 108.18,-49 108.18,-49 108.18,-61 108.18,-61 108.18,-67 102.18,-73 96.18,-73"/>
<text xml:space="preserve" text-anchor="start" x="15.84" y="-52.1" font-family="TT Commons Pro Trial" font-weight="bold" font-size="12.00" fill="white">Consumer app</text>
</g>
<!-- Umbrella -->
<g id="node2" class="node">
<title>Umbrella</title>
<path fill="#f59e0b" stroke="#d97706" stroke-width="1.4" d="M291.24,-73C291.24,-73 260.31,-73 260.31,-73 254.31,-73 248.31,-67 248.31,-61 248.31,-61 248.31,-49 248.31,-49 248.31,-43 254.31,-37 260.31,-37 260.31,-37 291.24,-37 291.24,-37 297.24,-37 303.24,-43 303.24,-49 303.24,-49 303.24,-61 303.24,-61 303.24,-67 297.24,-73 291.24,-73"/>
<text xml:space="preserve" text-anchor="start" x="264.15" y="-52.1" font-family="TT Commons Pro Trial" font-weight="bold" font-size="12.00" fill="white">arcp</text>
</g>
<!-- Consumer&#45;&gt;Umbrella -->
<g id="edge1" class="edge">
<title>Consumer&#45;&gt;Umbrella</title>
<path fill="none" stroke="#64748b" stroke-width="1.1" d="M108.83,-55C149.35,-55 203.78,-55 239.07,-55"/>
<polygon fill="#64748b" stroke="#64748b" stroke-width="1.1" points="246.27,-55 238.77,-58.38 243.86,-55.05 238.77,-55.05 238.77,-55 238.77,-54.95 243.86,-54.95 238.77,-51.63 246.27,-55"/>
<text xml:space="preserve" text-anchor="middle" x="162.31" y="-57.7" font-family="TT Commons Pro Trial" font-size="9.00" fill="#94a3b8">implementation</text>
</g>
<!-- Client -->
<g id="node3" class="node">
<title>Client</title>
<path fill="#334155" stroke="#475569" d="M519.29,-70C519.29,-70 460.61,-70 460.61,-70 454.61,-70 448.61,-64 448.61,-58 448.61,-58 448.61,-46 448.61,-46 448.61,-40 454.61,-34 460.61,-34 460.61,-34 519.29,-34 519.29,-34 525.29,-34 531.29,-40 531.29,-46 531.29,-46 531.29,-58 531.29,-58 531.29,-64 525.29,-70 519.29,-70"/>
<text xml:space="preserve" text-anchor="middle" x="489.95" y="-48.67" font-family="TT Commons Pro Trial" font-size="11.00" fill="#f1f5f9">arcp&#45;client</text>
</g>
<!-- Umbrella&#45;&gt;Client -->
<g id="edge2" class="edge">
<title>Umbrella&#45;&gt;Client</title>
<path fill="none" stroke="#94a3b8" stroke-width="1.2" d="M303.8,-50.73C319.59,-48.45 339.93,-45.89 358.11,-44.75 385.72,-43.02 392.73,-43.29 420.36,-44.75 426.61,-45.08 433.16,-45.58 439.64,-46.16"/>
<polygon fill="#94a3b8" stroke="#94a3b8" stroke-width="1.2" points="446.93,-46.86 439.14,-49.5 444.64,-46.74 439.45,-46.24 439.46,-46.14 439.47,-46.04 444.66,-46.54 439.79,-42.78 446.93,-46.86"/>
<text xml:space="preserve" text-anchor="middle" x="389.24" y="-47.45" font-family="TT Commons Pro Trial" font-size="9.00" fill="#94a3b8">api</text>
</g>
<!-- Runtime -->
<g id="node4" class="node">
<title>Runtime</title>
<path fill="#334155" stroke="#475569" d="M524.54,-130C524.54,-130 455.36,-130 455.36,-130 449.36,-130 443.36,-124 443.36,-118 443.36,-118 443.36,-106 443.36,-106 443.36,-100 449.36,-94 455.36,-94 455.36,-94 524.54,-94 524.54,-94 530.54,-94 536.54,-100 536.54,-106 536.54,-106 536.54,-118 536.54,-118 536.54,-124 530.54,-130 524.54,-130"/>
<text xml:space="preserve" text-anchor="middle" x="489.95" y="-108.67" font-family="TT Commons Pro Trial" font-size="11.00" fill="#f1f5f9">arcp&#45;runtime</text>
</g>
<!-- Umbrella&#45;&gt;Runtime -->
<g id="edge3" class="edge">
<title>Umbrella&#45;&gt;Runtime</title>
<path fill="none" stroke="#94a3b8" stroke-width="1.2" d="M303.87,-72.67C319.17,-81.78 339.01,-92.17 358.11,-98 382.42,-105.43 410.32,-109.04 434.1,-110.76"/>
<polygon fill="#94a3b8" stroke="#94a3b8" stroke-width="1.2" points="441.53,-111.23 433.83,-114.12 439.24,-111.18 434.04,-110.85 434.05,-110.75 434.05,-110.65 439.25,-110.99 434.26,-107.38 441.53,-111.23"/>
<text xml:space="preserve" text-anchor="middle" x="389.24" y="-112.05" font-family="TT Commons Pro Trial" font-size="9.00" fill="#94a3b8">api</text>
</g>
<!-- Core -->
<g id="node5" class="node">
<title>Core</title>
<path fill="#334155" stroke="#475569" d="M659.97,-130C659.97,-130 606.54,-130 606.54,-130 600.54,-130 594.54,-124 594.54,-118 594.54,-118 594.54,-106 594.54,-106 594.54,-100 600.54,-94 606.54,-94 606.54,-94 659.97,-94 659.97,-94 665.97,-94 671.97,-100 671.97,-106 671.97,-106 671.97,-118 671.97,-118 671.97,-124 665.97,-130 659.97,-130"/>
<text xml:space="preserve" text-anchor="middle" x="633.26" y="-108.67" font-family="TT Commons Pro Trial" font-size="11.00" fill="#f1f5f9">arcp&#45;core</text>
</g>
<!-- Client&#45;&gt;Core -->
<g id="edge4" class="edge">
<title>Client&#45;&gt;Core</title>
<path fill="none" stroke="#94a3b8" stroke-width="1.2" d="M531.44,-69.19C548.56,-76.46 568.58,-84.96 586.25,-92.47"/>
<polygon fill="#94a3b8" stroke="#94a3b8" stroke-width="1.2" points="592.84,-95.26 584.61,-95.44 590.69,-94.46 585.89,-92.42 585.93,-92.33 585.97,-92.24 590.77,-94.28 587.25,-89.22 592.84,-95.26"/>
<text xml:space="preserve" text-anchor="middle" x="565.54" y="-88.29" font-family="TT Commons Pro Trial" font-size="9.00" fill="#94a3b8">api</text>
</g>
<!-- Runtime&#45;&gt;Core -->
<g id="edge5" class="edge">
<title>Runtime&#45;&gt;Core</title>
<path fill="none" stroke="#94a3b8" stroke-width="1.2" d="M536.98,-110.88C548.28,-110.71 560.35,-110.63 571.54,-110.75 576.04,-110.8 580.72,-110.86 585.41,-110.94"/>
<polygon fill="#94a3b8" stroke="#94a3b8" stroke-width="1.2" points="592.9,-111.07 585.34,-114.31 590.61,-111.13 585.4,-111.04 585.4,-110.94 585.4,-110.84 590.62,-110.93 585.46,-107.56 592.9,-111.07"/>
<text xml:space="preserve" text-anchor="middle" x="565.54" y="-113.45" font-family="TT Commons Pro Trial" font-size="9.00" fill="#94a3b8">api</text>
</g>
<!-- Jetty -->
<g id="node6" class="node">
<title>Jetty</title>
<path fill="#334155" stroke="#475569" d="M323.11,-221C323.11,-221 228.43,-221 228.43,-221 222.43,-221 216.43,-215 216.43,-209 216.43,-209 216.43,-197 216.43,-197 216.43,-191 222.43,-185 228.43,-185 228.43,-185 323.11,-185 323.11,-185 329.11,-185 335.11,-191 335.11,-197 335.11,-197 335.11,-209 335.11,-209 335.11,-215 329.11,-221 323.11,-221"/>
<text xml:space="preserve" text-anchor="middle" x="275.77" y="-199.68" font-family="TT Commons Pro Trial" font-size="11.00" fill="#f1f5f9">arcp&#45;runtime&#45;jetty</text>
</g>
<!-- Jetty&#45;&gt;Runtime -->
<g id="edge6" class="edge">
<title>Jetty&#45;&gt;Runtime</title>
<path fill="none" stroke="#475569" stroke-dasharray="5,2" d="M335.37,-195.94C363.82,-189.91 396.84,-178.73 420.36,-158 429.16,-150.24 422.8,-142.02 431.36,-134 432.76,-132.69 434.24,-131.46 435.79,-130.3"/>
<polygon fill="#475569" stroke="#475569" points="441.93,-126.31 437.47,-133.23 439.8,-127.69 435.64,-130.4 435.64,-130.4 435.64,-130.4 439.8,-127.69 433.8,-127.56 441.93,-126.31"/>
<text xml:space="preserve" text-anchor="middle" x="389.24" y="-192.41" font-family="TT Commons Pro Trial" font-size="9.00" fill="#94a3b8">implementation</text>
</g>
<!-- Otel -->
<g id="node7" class="node">
<title>Otel</title>
<path fill="#334155" stroke="#475569" d="M515.17,-221C515.17,-221 464.74,-221 464.74,-221 458.74,-221 452.74,-215 452.74,-209 452.74,-209 452.74,-197 452.74,-197 452.74,-191 458.74,-185 464.74,-185 464.74,-185 515.17,-185 515.17,-185 521.17,-185 527.17,-191 527.17,-197 527.17,-197 527.17,-209 527.17,-209 527.17,-215 521.17,-221 515.17,-221"/>
<text xml:space="preserve" text-anchor="middle" x="489.95" y="-199.68" font-family="TT Commons Pro Trial" font-size="11.00" fill="#f1f5f9">arcp&#45;otel</text>
</g>
<!-- Otel&#45;&gt;Core -->
<g id="edge7" class="edge">
<title>Otel&#45;&gt;Core</title>
<path fill="none" stroke="#475569" stroke-dasharray="5,2" d="M527.02,-184.55C530.27,-182.73 533.49,-180.86 536.54,-179 558.71,-165.48 582.64,-148.73 601.03,-135.36"/>
<polygon fill="#475569" stroke="#475569" points="607.05,-130.95 602.99,-138.1 605.01,-132.44 601,-135.38 601,-135.38 601,-135.38 605.01,-132.44 599.01,-132.65 607.05,-130.95"/>
<text xml:space="preserve" text-anchor="middle" x="565.54" y="-166.15" font-family="TT Commons Pro Trial" font-size="9.00" fill="#94a3b8">api</text>
</g>
<!-- Tck -->
<g id="node8" class="node">
<title>Tck</title>
<path fill="#334155" stroke="#475569" d="M299.49,-143C299.49,-143 252.06,-143 252.06,-143 246.06,-143 240.06,-137 240.06,-131 240.06,-131 240.06,-119 240.06,-119 240.06,-113 246.06,-107 252.06,-107 252.06,-107 299.49,-107 299.49,-107 305.49,-107 311.49,-113 311.49,-119 311.49,-119 311.49,-131 311.49,-131 311.49,-137 305.49,-143 299.49,-143"/>
<text xml:space="preserve" text-anchor="middle" x="275.77" y="-121.67" font-family="TT Commons Pro Trial" font-size="11.00" fill="#f1f5f9">arcp&#45;tck</text>
</g>
<!-- Tck&#45;&gt;Client -->
<g id="edge8" class="edge">
<title>Tck&#45;&gt;Client</title>
<path fill="none" stroke="#475569" stroke-dasharray="5,2" d="M309.7,-106.7C324.22,-99.15 341.7,-90.79 358.11,-84.75 384.57,-75.02 415.08,-67.2 439.98,-61.64"/>
<polygon fill="#475569" stroke="#475569" points="447,-60.11 440.4,-65.01 444.53,-60.65 439.67,-61.71 439.67,-61.71 439.67,-61.71 444.53,-60.65 438.95,-58.41 447,-60.11"/>
<text xml:space="preserve" text-anchor="middle" x="389.24" y="-87.45" font-family="TT Commons Pro Trial" font-size="9.00" fill="#94a3b8">api</text>
</g>
<!-- Tck&#45;&gt;Runtime -->
<g id="edge9" class="edge">
<title>Tck&#45;&gt;Runtime</title>
<path fill="none" stroke="#475569" stroke-dasharray="5,2" d="M311.83,-133.44C341.05,-139.21 383.67,-144.72 420.36,-138 420.94,-137.89 426.83,-135.71 434.95,-132.64"/>
<polygon fill="#475569" stroke="#475569" points="441.8,-130.04 435.99,-135.86 439.44,-130.94 434.79,-132.7 434.79,-132.7 434.79,-132.7 439.44,-130.94 433.59,-129.55 441.8,-130.04"/>
<text xml:space="preserve" text-anchor="middle" x="389.24" y="-143.78" font-family="TT Commons Pro Trial" font-size="9.00" fill="#94a3b8">api</text>
</g>
</g>
</svg>
