<?xml version="1.0" encoding="UTF-8" standalone="no"?>
<!DOCTYPE svg PUBLIC "-//W3C//DTD SVG 1.1//EN"
 "http://www.w3.org/Graphics/SVG/1.1/DTD/svg11.dtd">
<!-- Generated by graphviz version 14.1.5 (20260411.2331)
 -->
<!-- Title: ResultChunk Pages: 1 -->
<svg width="894pt" height="250pt"
 viewBox="0.00 0.00 894.00 250.00" xmlns="http://www.w3.org/2000/svg" xmlns:xlink="http://www.w3.org/1999/xlink">
<g id="graph0" class="graph" transform="scale(1 1) rotate(0) translate(25.2 232)">
<title>ResultChunk</title>
<g id="clust1" class="cluster">
<title>cluster_pipe</title>
<path fill="#f1f5f9" stroke="#e2e8f0" d="M241.18,-8C241.18,-8 419.36,-8 419.36,-8 425.36,-8 431.36,-14 431.36,-20 431.36,-20 431.36,-159 431.36,-159 431.36,-165 425.36,-171 419.36,-171 419.36,-171 241.18,-171 241.18,-171 235.18,-171 229.18,-165 229.18,-159 229.18,-159 229.18,-20 229.18,-20 229.18,-14 235.18,-8 241.18,-8"/>
<text xml:space="preserve" text-anchor="start" x="245.18" y="-148.6" font-family="Helvetica,sans-Serif" font-weight="bold" font-size="12.00" fill="#475569">Wire</text>
</g>
<g id="clust2" class="cluster">
<title>cluster_client</title>
<path fill="#f8fafc" stroke="#e2e8f0" d="M521.11,-76C521.11,-76 823.97,-76 823.97,-76 829.97,-76 835.97,-82 835.97,-88 835.97,-88 835.97,-194 835.97,-194 835.97,-200 829.97,-206 823.97,-206 823.97,-206 521.11,-206 521.11,-206 515.11,-206 509.11,-200 509.11,-194 509.11,-194 509.11,-88 509.11,-88 509.11,-82 515.11,-76 521.11,-76"/>
<text xml:space="preserve" text-anchor="start" x="525.11" y="-183.6" font-family="Helvetica,sans-Serif" font-weight="bold" font-size="12.00" fill="#475569">Client</text>
</g>
<!-- Agent -->
<g id="node1" class="node">
<title>Agent</title>
<path fill="#3b82f6" stroke="#2563eb" stroke-width="1.4" d="M54.18,-92C54.18,-92 12,-92 12,-92 6,-92 0,-86 0,-80 0,-80 0,-68 0,-68 0,-62 6,-56 12,-56 12,-56 54.18,-56 54.18,-56 60.18,-56 66.18,-62 66.18,-68 66.18,-68 66.18,-80 66.18,-80 66.18,-86 60.18,-92 54.18,-92"/>
<text xml:space="preserve" text-anchor="start" x="15.84" y="-69.97" font-family="Helvetica,sans-Serif" font-weight="bold" font-size="12.00" fill="white">Agent</text>
</g>
<!-- ResultChunkEnvelope -->
<g id="node2" class="node">
<title>ResultChunkEnvelope</title>
<path fill="white" stroke="#cbd5e1" d="M405.36,-127.92C405.36,-127.92 255.18,-127.92 255.18,-127.92 249.18,-127.92 243.18,-121.92 243.18,-115.92 243.18,-115.92 243.18,-100.08 243.18,-100.08 243.18,-94.08 249.18,-88.08 255.18,-88.08 255.18,-88.08 405.36,-88.08 405.36,-88.08 411.36,-88.08 417.36,-94.08 417.36,-100.08 417.36,-100.08 417.36,-115.92 417.36,-115.92 417.36,-121.92 411.36,-127.92 405.36,-127.92"/>
<text xml:space="preserve" text-anchor="middle" x="330.27" y="-109.55" font-family="Helvetica,sans-Serif" font-size="11.00" fill="#1f2937">result_chunk</text>
<text xml:space="preserve" text-anchor="middle" x="330.27" y="-97.55" font-family="Helvetica,sans-Serif" font-size="11.00" fill="#1f2937">{ result_id, chunk_seq, more }</text>
</g>
<!-- Agent&#45;&gt;ResultChunkEnvelope -->
<g id="edge1" class="edge">
<title>Agent&#45;&gt;ResultChunkEnvelope</title>
<path fill="none" stroke="#64748b" stroke-width="1.2" d="M66.81,-77.77C106.93,-82.39 176.68,-90.42 234.2,-97.05"/>
<polygon fill="#64748b" stroke="#64748b" stroke-width="1.2" points="241.51,-97.89 233.67,-100.39 239.22,-97.73 234.04,-97.13 234.06,-97.03 234.07,-96.93 239.24,-97.53 234.44,-93.68 241.51,-97.89"/>
<text xml:space="preserve" text-anchor="middle" x="154.68" y="-106" font-family="Helvetica,sans-Serif" font-size="9.00" fill="#64748b">emit chunk_seq=0..N&#45;1</text>
<text xml:space="preserve" text-anchor="middle" x="154.68" y="-96.25" font-family="Helvetica,sans-Serif" font-size="9.00" fill="#64748b">§8.4</text>
</g>
<!-- JobResult -->
<g id="node3" class="node">
<title>JobResult</title>
<path fill="white" stroke="#cbd5e1" d="M391.11,-61.92C391.11,-61.92 269.43,-61.92 269.43,-61.92 263.43,-61.92 257.43,-55.92 257.43,-49.92 257.43,-49.92 257.43,-34.08 257.43,-34.08 257.43,-28.08 263.43,-22.08 269.43,-22.08 269.43,-22.08 391.11,-22.08 391.11,-22.08 397.11,-22.08 403.11,-28.08 403.11,-34.08 403.11,-34.08 403.11,-49.92 403.11,-49.92 403.11,-55.92 397.11,-61.92 391.11,-61.92"/>
<text xml:space="preserve" text-anchor="middle" x="330.27" y="-43.55" font-family="Helvetica,sans-Serif" font-size="11.00" fill="#1f2937">job.result</text>
<text xml:space="preserve" text-anchor="middle" x="330.27" y="-31.55" font-family="Helvetica,sans-Serif" font-size="11.00" fill="#1f2937">{ final_status, result_id }</text>
</g>
<!-- Agent&#45;&gt;JobResult -->
<g id="edge3" class="edge">
<title>Agent&#45;&gt;JobResult</title>
<path fill="none" stroke="#64748b" stroke-width="1.2" d="M66.78,-59.45C74.32,-56.66 82.42,-54.11 90.18,-52.5 142.06,-41.72 201.58,-39.07 248.26,-39.13"/>
<polygon fill="#64748b" stroke="#64748b" stroke-width="1.2" points="255.66,-39.17 248.14,-42.51 253.37,-39.26 248.16,-39.23 248.16,-39.13 248.16,-39.03 253.37,-39.06 248.18,-35.76 255.66,-39.17"/>
<text xml:space="preserve" text-anchor="middle" x="154.68" y="-63.45" font-family="Helvetica,sans-Serif" font-size="9.00" fill="#64748b">JobOutcome.Success.streamed</text>
<text xml:space="preserve" text-anchor="middle" x="154.68" y="-53.7" font-family="Helvetica,sans-Serif" font-size="9.00" fill="#64748b">§8.4</text>
</g>
<!-- ResultStream -->
<g id="node4" class="node">
<title>ResultStream</title>
<path fill="#f59e0b" stroke="#d97706" stroke-width="1.4" d="M620.04,-126C620.04,-126 535.11,-126 535.11,-126 529.11,-126 523.11,-120 523.11,-114 523.11,-114 523.11,-102 523.11,-102 523.11,-96 529.11,-90 535.11,-90 535.11,-90 620.04,-90 620.04,-90 626.04,-90 632.04,-96 632.04,-102 632.04,-102 632.04,-114 632.04,-114 632.04,-120 626.04,-126 620.04,-126"/>
<text xml:space="preserve" text-anchor="start" x="538.95" y="-103.97" font-family="Helvetica,sans-Serif" font-weight="bold" font-size="12.00" fill="white">ResultStream</text>
</g>
<!-- ResultChunkEnvelope&#45;&gt;ResultStream -->
<g id="edge2" class="edge">
<title>ResultChunkEnvelope&#45;&gt;ResultStream</title>
<path fill="none" stroke="#64748b" stroke-width="1.2" d="M417.76,-108C449.38,-108 484.53,-108 513.71,-108"/>
<polygon fill="#64748b" stroke="#64748b" stroke-width="1.2" points="521.1,-108 513.6,-111.38 518.81,-108.1 513.6,-108.1 513.6,-108 513.6,-107.9 518.81,-107.9 513.6,-104.63 521.1,-108"/>
<text xml:space="preserve" text-anchor="middle" x="470.24" y="-109.2" font-family="Helvetica,sans-Serif" font-size="9.00" fill="#64748b">accept(chunk)</text>
</g>
<!-- ResultStream&#45;&gt;ResultStream -->
<g id="edge5" class="edge">
<title>ResultStream&#45;&gt;ResultStream</title>
<path fill="none" stroke="#f472b6" stroke-width="1.1" stroke-dasharray="5,2" d="M559.41,-126.54C553.91,-139.37 559.96,-152 577.58,-152 591.2,-152 597.9,-144.44 597.7,-135.08"/>
<polygon fill="#f472b6" stroke="#f472b6" stroke-width="1.1" points="596.04,-127.84 601,-134.4 596.62,-130.18 597.76,-135.14 597.71,-135.15 597.66,-135.16 596.53,-130.2 594.42,-135.91 596.04,-127.84"/>
<text xml:space="preserve" text-anchor="start" x="535.58" y="-164" font-family="Helvetica,sans-Serif" font-size="9.00" fill="#db2777">out&#45;of&#45;order buffered</text>
<text xml:space="preserve" text-anchor="start" x="541.2" y="-154.25" font-family="Helvetica,sans-Serif" font-size="9.00" fill="#db2777">duplicate rejected</text>
</g>
<!-- Sink -->
<g id="node5" class="node">
<title>Sink</title>
<path fill="#fafbfc" stroke="#cbd5e1" d="M821.97,-135.03C821.97,-137.37 803.61,-139.26 781.01,-139.26 758.4,-139.26 740.04,-137.37 740.04,-135.03 740.04,-135.03 740.04,-96.97 740.04,-96.97 740.04,-94.63 758.4,-92.73 781.01,-92.73 803.61,-92.73 821.97,-94.63 821.97,-96.97 821.97,-96.97 821.97,-135.03 821.97,-135.03"/>
<path fill="none" stroke="#cbd5e1" d="M821.97,-135.03C821.97,-132.7 803.61,-130.81 781.01,-130.81 758.4,-130.81 740.04,-132.7 740.04,-135.03"/>
<text xml:space="preserve" text-anchor="start" x="771.26" y="-116.5" font-family="Helvetica,sans-Serif" font-size="10.00" fill="#1f2937">Sink</text>
<text xml:space="preserve" text-anchor="start" x="755.88" y="-108.4" font-family="Helvetica,sans-Serif" font-size="8.00" fill="#94a3b8">OutputStream</text>
</g>
<!-- ResultStream&#45;&gt;Sink -->
<g id="edge4" class="edge">
<title>ResultStream&#45;&gt;Sink</title>
<path fill="none" stroke="#cbd5e1" d="M632.55,-110.14C663.21,-111.36 701.28,-112.87 731.06,-114.06"/>
<polygon fill="#cbd5e1" stroke="#cbd5e1" points="738.41,-114.35 730.78,-117.42 735.88,-114.25 730.91,-114.05 730.91,-114.05 730.91,-114.05 735.88,-114.25 731.05,-110.68 738.41,-114.35"/>
<text xml:space="preserve" text-anchor="middle" x="686.04" y="-114.61" font-family="Helvetica,sans-Serif" font-size="9.00" fill="#64748b">decoded bytes</text>
</g>
</g>
</svg>
